<mxfile host="app.diagrams.net" agent="Mozilla/5.0 (Windows NT 10.0; Win64; x64) AppleWebKit/537.36 (KHTML, like Gecko) Chrome/131.0.0.0 Safari/537.36" version="24.9.0">
  <diagram name="Page-1" id="44dBAtolAzwuiASPOmXm">
    <mxGraphModel dx="683" dy="355" grid="1" gridSize="10" guides="1" tooltips="1" connect="1" arrows="1" fold="1" page="1" pageScale="1" pageWidth="850" pageHeight="1100" math="0" shadow="0">
      <root>
        <mxCell id="0" />
        <mxCell id="1" parent="0" />
        <mxCell id="MydypRXtHJw0Ag65gW76-1" value="NUCLEO-F411RE&lt;div&gt;Sensor_Controller&lt;/div&gt;" style="whiteSpace=wrap;html=1;" vertex="1" parent="1">
          <mxGeometry x="50" y="20" width="180" height="290" as="geometry" />
        </mxCell>
        <mxCell id="MydypRXtHJw0Ag65gW76-2" value="&lt;section style=&quot;border-radius: 4px; margin-top: 21px; padding: 4px; position: relative; scroll-margin-bottom: 40px; scroll-margin-top: 40px; font-family: &amp;quot;Segoe WPC&amp;quot;, &amp;quot;Segoe UI&amp;quot;, sans-serif; line-height: 50%; margin-right: 0px !important; margin-bottom: 2px !important; margin-left: 0px !important;&quot; data-section-index=&quot;14&quot; data-markdown-raw=&quot;### Pin Connections&quot; class=&quot;markdown-section&quot; id=&quot;markdown-section-5cec0b7e-43b1-407c-96fc-deb87e958b63-14&quot;&gt;&lt;h3 style=&quot;margin-bottom: 0px; margin-top: 0px; line-height: 50%;&quot;&gt;&lt;font color=&quot;#ffffff&quot; style=&quot;font-size: 12px; line-height: 50%; font-weight: normal; background-color: rgb(10, 10, 10);&quot;&gt;Pin Connections&lt;/font&gt;&lt;/h3&gt;&lt;/section&gt;&lt;section style=&quot;border-radius: 4px; margin-top: 23px; padding: 4px; position: relative; scroll-margin-bottom: 40px; scroll-margin-top: 40px; font-family: &amp;quot;Segoe WPC&amp;quot;, &amp;quot;Segoe UI&amp;quot;, sans-serif; line-height: 50%; margin-right: 0px !important; margin-bottom: 2px !important; margin-left: 0px !important;&quot; data-section-index=&quot;16&quot; data-markdown-raw=&quot;#### Board #1 (Sensor Platform)&quot; class=&quot;markdown-section&quot; id=&quot;markdown-section-5cec0b7e-43b1-407c-96fc-deb87e958b63-16&quot;&gt;&lt;div style=&quot;animation: auto ease 0s 1 normal none running none !important;&quot; class=&quot;markdown-section-toolbar&quot;&gt;&lt;div style=&quot;animation: auto ease 0s 1 normal none running none !important; height: 0px; width: 531.219px;&quot;&gt;&lt;div style=&quot;border-radius: 4px; display: flex; gap: 4px; opacity: 0; position: absolute; right: 8px; top: 0px; transform: translateY(-85%); z-index: 303; animation: auto ease 0s 1 normal none running none !important;&quot; class=&quot;markdown-section-toolbar-internal&quot;&gt;&lt;div style=&quot;align-items: center; border-radius: 3px; cursor: pointer; display: flex; height: 20px; justify-content: center; opacity: 0.3; position: relative; width: 20px; animation: auto ease 0s 1 normal none running none !important;&quot; class=&quot;markdown-section-toolbar-item dark&quot;&gt;&lt;span style=&quot;display: inline-block; font-variant-numeric: normal; font-variant-east-asian: normal; font-variant-alternates: normal; font-size-adjust: none; font-kerning: auto; font-optical-sizing: auto; font-feature-settings: normal; font-variation-settings: normal; font-variant-position: normal; font-variant-emoji: normal; font-stretch: normal; line-height: 1; font-family: codicon; text-rendering: auto; -webkit-font-smoothing: antialiased; user-select: none; animation: auto ease 0s 1 normal none running none !important;&quot; class=&quot;codicon codicon-reply&quot;&gt;&lt;/span&gt;&lt;/div&gt;&lt;div style=&quot;align-items: center; border-radius: 3px; cursor: pointer; display: flex; height: 20px; justify-content: center; opacity: 0.3; position: relative; width: 20px; pointer-events: auto; animation: auto ease 0s 1 normal none running none !important;&quot; class=&quot;markdown-section-toolbar-item markdown-section-toolbar-copy dark&quot;&gt;&lt;span style=&quot;display: inline-block; font-variant-numeric: normal; font-variant-east-asian: normal; font-variant-alternates: normal; font-size-adjust: none; font-kerning: auto; font-optical-sizing: auto; font-feature-settings: normal; font-variation-settings: normal; font-variant-position: normal; font-variant-emoji: normal; font-stretch: normal; line-height: 1; font-family: codicon; text-rendering: auto; -webkit-font-smoothing: antialiased; user-select: none; animation: auto ease 0s 1 normal none running none !important;&quot; class=&quot;codicon codicon-copy&quot;&gt;&lt;/span&gt;&lt;/div&gt;&lt;/div&gt;&lt;/div&gt;&lt;/div&gt;&lt;h4 style=&quot;margin-bottom: 0px; margin-top: 0px;&quot;&gt;&lt;font color=&quot;#ffffff&quot; style=&quot;font-weight: normal; background-color: rgb(10, 10, 10);&quot;&gt;Board #1&amp;nbsp;(Sensor Platform)&lt;/font&gt;&lt;/h4&gt;&lt;/section&gt;&lt;section style=&quot;border-radius: 4px; padding: 4px; position: relative; scroll-margin-bottom: 40px; scroll-margin-top: 40px; font-family: &amp;quot;Segoe WPC&amp;quot;, &amp;quot;Segoe UI&amp;quot;, sans-serif; line-height: 50%; margin: 2px 0px !important;&quot; data-section-index=&quot;17&quot; data-markdown-raw=&quot;- UART6_TX (PC6) → Connect to Board #2 UART6_RX&quot; class=&quot;markdown-section&quot; id=&quot;markdown-section-5cec0b7e-43b1-407c-96fc-deb87e958b63-17&quot;&gt;&lt;div style=&quot;animation: auto ease 0s 1 normal none running none !important;&quot; class=&quot;markdown-section-toolbar&quot;&gt;&lt;div style=&quot;animation: auto ease 0s 1 normal none running none !important; height: 0px; width: 531.219px;&quot;&gt;&lt;div style=&quot;border-radius: 4px; display: flex; gap: 4px; opacity: 0; position: absolute; right: 8px; top: 0px; transform: translateY(-85%); z-index: 303; animation: auto ease 0s 1 normal none running none !important;&quot; class=&quot;markdown-section-toolbar-internal&quot;&gt;&lt;div style=&quot;align-items: center; border-radius: 3px; cursor: pointer; display: flex; height: 20px; justify-content: center; opacity: 0.3; position: relative; width: 20px; animation: auto ease 0s 1 normal none running none !important;&quot; class=&quot;markdown-section-toolbar-item dark&quot;&gt;&lt;span style=&quot;display: inline-block; font-variant-numeric: normal; font-variant-east-asian: normal; font-variant-alternates: normal; font-size-adjust: none; font-kerning: auto; font-optical-sizing: auto; font-feature-settings: normal; font-variation-settings: normal; font-variant-position: normal; font-variant-emoji: normal; font-stretch: normal; line-height: 1; font-family: codicon; text-rendering: auto; -webkit-font-smoothing: antialiased; user-select: none; animation: auto ease 0s 1 normal none running none !important;&quot; class=&quot;codicon codicon-reply&quot;&gt;&lt;/span&gt;&lt;/div&gt;&lt;div style=&quot;align-items: center; border-radius: 3px; cursor: pointer; display: flex; height: 20px; justify-content: center; opacity: 0.3; position: relative; width: 20px; pointer-events: auto; animation: auto ease 0s 1 normal none running none !important;&quot; class=&quot;markdown-section-toolbar-item markdown-section-toolbar-copy dark&quot;&gt;&lt;span style=&quot;display: inline-block; font-variant-numeric: normal; font-variant-east-asian: normal; font-variant-alternates: normal; font-size-adjust: none; font-kerning: auto; font-optical-sizing: auto; font-feature-settings: normal; font-variation-settings: normal; font-variant-position: normal; font-variant-emoji: normal; font-stretch: normal; line-height: 1; font-family: codicon; text-rendering: auto; -webkit-font-smoothing: antialiased; user-select: none; animation: auto ease 0s 1 normal none running none !important;&quot; class=&quot;codicon codicon-copy&quot;&gt;&lt;/span&gt;&lt;/div&gt;&lt;/div&gt;&lt;/div&gt;&lt;/div&gt;&lt;li style=&quot;padding-left: 0px; padding-top: 2px; padding-bottom: 2px; margin-top: 0px; margin-bottom: 0px;&quot;&gt;&lt;font style=&quot;background-color: rgb(10, 10, 10);&quot; color=&quot;#ffffff&quot;&gt;UART6_TX (PC6) → Connect to Board #2 UART6_RX&lt;/font&gt;&lt;/li&gt;&lt;/section&gt;&lt;section style=&quot;border-radius: 4px; padding: 4px; position: relative; scroll-margin-bottom: 40px; scroll-margin-top: 40px; font-family: &amp;quot;Segoe WPC&amp;quot;, &amp;quot;Segoe UI&amp;quot;, sans-serif; line-height: 50%; margin: 2px 0px !important;&quot; data-section-index=&quot;18&quot; data-markdown-raw=&quot;- UART6_RX (PC7) → Connect to Board #2 UART6_TX&quot; class=&quot;markdown-section&quot; id=&quot;markdown-section-5cec0b7e-43b1-407c-96fc-deb87e958b63-18&quot;&gt;&lt;div style=&quot;animation: auto ease 0s 1 normal none running none !important;&quot; class=&quot;markdown-section-toolbar&quot;&gt;&lt;div style=&quot;animation: auto ease 0s 1 normal none running none !important; height: 0px; width: 531.219px;&quot;&gt;&lt;div style=&quot;border-radius: 4px; display: flex; gap: 4px; opacity: 0; position: absolute; right: 8px; top: 0px; transform: translateY(-85%); z-index: 303; animation: auto ease 0s 1 normal none running none !important;&quot; class=&quot;markdown-section-toolbar-internal&quot;&gt;&lt;div style=&quot;align-items: center; border-radius: 3px; cursor: pointer; display: flex; height: 20px; justify-content: center; opacity: 0.3; position: relative; width: 20px; animation: auto ease 0s 1 normal none running none !important;&quot; class=&quot;markdown-section-toolbar-item dark&quot;&gt;&lt;span style=&quot;display: inline-block; font-variant-numeric: normal; font-variant-east-asian: normal; font-variant-alternates: normal; font-size-adjust: none; font-kerning: auto; font-optical-sizing: auto; font-feature-settings: normal; font-variation-settings: normal; font-variant-position: normal; font-variant-emoji: normal; font-stretch: normal; line-height: 1; font-family: codicon; text-rendering: auto; -webkit-font-smoothing: antialiased; user-select: none; animation: auto ease 0s 1 normal none running none !important;&quot; class=&quot;codicon codicon-reply&quot;&gt;&lt;/span&gt;&lt;/div&gt;&lt;div style=&quot;align-items: center; border-radius: 3px; cursor: pointer; display: flex; height: 20px; justify-content: center; opacity: 0.3; position: relative; width: 20px; pointer-events: auto; animation: auto ease 0s 1 normal none running none !important;&quot; class=&quot;markdown-section-toolbar-item markdown-section-toolbar-copy dark&quot;&gt;&lt;span style=&quot;display: inline-block; font-variant-numeric: normal; font-variant-east-asian: normal; font-variant-alternates: normal; font-size-adjust: none; font-kerning: auto; font-optical-sizing: auto; font-feature-settings: normal; font-variation-settings: normal; font-variant-position: normal; font-variant-emoji: normal; font-stretch: normal; line-height: 1; font-family: codicon; text-rendering: auto; -webkit-font-smoothing: antialiased; user-select: none; animation: auto ease 0s 1 normal none running none !important;&quot; class=&quot;codicon codicon-copy&quot;&gt;&lt;/span&gt;&lt;/div&gt;&lt;/div&gt;&lt;/div&gt;&lt;/div&gt;&lt;li style=&quot;padding-left: 0px; padding-top: 2px; padding-bottom: 2px; margin-top: 0px; margin-bottom: 0px;&quot;&gt;&lt;font style=&quot;background-color: rgb(10, 10, 10);&quot; color=&quot;#ffffff&quot;&gt;UART6_RX (PC7) → Connect to Board #2 UART6_TX&lt;/font&gt;&lt;/li&gt;&lt;/section&gt;&lt;section style=&quot;border-radius: 4px; padding: 4px; position: relative; scroll-margin-bottom: 40px; scroll-margin-top: 40px; font-family: &amp;quot;Segoe WPC&amp;quot;, &amp;quot;Segoe UI&amp;quot;, sans-serif; line-height: 50%; margin: 2px 0px !important;&quot; data-section-index=&quot;19&quot; data-markdown-raw=&quot;- GND → Connect to Board #2 GND&quot; class=&quot;markdown-section&quot; id=&quot;markdown-section-5cec0b7e-43b1-407c-96fc-deb87e958b63-19&quot;&gt;&lt;div style=&quot;animation: auto ease 0s 1 normal none running none !important;&quot; class=&quot;markdown-section-toolbar&quot;&gt;&lt;div style=&quot;animation: auto ease 0s 1 normal none running none !important; height: 0px; width: 531.219px;&quot;&gt;&lt;div style=&quot;border-radius: 4px; display: flex; gap: 4px; opacity: 0; position: absolute; right: 8px; top: 0px; transform: translateY(-85%); z-index: 303; animation: auto ease 0s 1 normal none running none !important;&quot; class=&quot;markdown-section-toolbar-internal&quot;&gt;&lt;div style=&quot;align-items: center; border-radius: 3px; cursor: pointer; display: flex; height: 20px; justify-content: center; opacity: 0.3; position: relative; width: 20px; animation: auto ease 0s 1 normal none running none !important;&quot; class=&quot;markdown-section-toolbar-item dark&quot;&gt;&lt;span style=&quot;display: inline-block; font-variant-numeric: normal; font-variant-east-asian: normal; font-variant-alternates: normal; font-size-adjust: none; font-kerning: auto; font-optical-sizing: auto; font-feature-settings: normal; font-variation-settings: normal; font-variant-position: normal; font-variant-emoji: normal; font-stretch: normal; line-height: 1; font-family: codicon; text-rendering: auto; -webkit-font-smoothing: antialiased; user-select: none; animation: auto ease 0s 1 normal none running none !important;&quot; class=&quot;codicon codicon-reply&quot;&gt;&lt;/span&gt;&lt;/div&gt;&lt;div style=&quot;align-items: center; border-radius: 3px; cursor: pointer; display: flex; height: 20px; justify-content: center; opacity: 0.3; position: relative; width: 20px; pointer-events: auto; animation: auto ease 0s 1 normal none running none !important;&quot; class=&quot;markdown-section-toolbar-item markdown-section-toolbar-copy dark&quot;&gt;&lt;span style=&quot;display: inline-block; font-variant-numeric: normal; font-variant-east-asian: normal; font-variant-alternates: normal; font-size-adjust: none; font-kerning: auto; font-optical-sizing: auto; font-feature-settings: normal; font-variation-settings: normal; font-variant-position: normal; font-variant-emoji: normal; font-stretch: normal; line-height: 1; font-family: codicon; text-rendering: auto; -webkit-font-smoothing: antialiased; user-select: none; animation: auto ease 0s 1 normal none running none !important;&quot; class=&quot;codicon codicon-copy&quot;&gt;&lt;/span&gt;&lt;/div&gt;&lt;/div&gt;&lt;/div&gt;&lt;/div&gt;&lt;li style=&quot;padding-left: 0px; padding-top: 2px; padding-bottom: 2px; margin-top: 0px; margin-bottom: 0px;&quot;&gt;&lt;font style=&quot;background-color: rgb(10, 10, 10);&quot; color=&quot;#ffffff&quot;&gt;GND → Connect to Board #2 GND&lt;/font&gt;&lt;/li&gt;&lt;/section&gt;&lt;section style=&quot;border-radius: 4px; margin-top: 23px; padding: 4px; position: relative; scroll-margin-bottom: 40px; scroll-margin-top: 40px; font-family: &amp;quot;Segoe WPC&amp;quot;, &amp;quot;Segoe UI&amp;quot;, sans-serif; line-height: 50%; margin-right: 0px !important; margin-bottom: 2px !important; margin-left: 0px !important;&quot; data-section-index=&quot;21&quot; data-markdown-raw=&quot;#### Board #2 (Sensor Controller)&quot; class=&quot;markdown-section&quot; id=&quot;markdown-section-5cec0b7e-43b1-407c-96fc-deb87e958b63-21&quot;&gt;&lt;div style=&quot;animation: auto ease 0s 1 normal none running none !important;&quot; class=&quot;markdown-section-toolbar&quot;&gt;&lt;div style=&quot;animation: auto ease 0s 1 normal none running none !important; height: 0px; width: 531.219px;&quot;&gt;&lt;div style=&quot;border-radius: 4px; display: flex; gap: 4px; opacity: 0; position: absolute; right: 8px; top: 0px; transform: translateY(-85%); z-index: 303; animation: auto ease 0s 1 normal none running none !important;&quot; class=&quot;markdown-section-toolbar-internal&quot;&gt;&lt;div style=&quot;align-items: center; border-radius: 3px; cursor: pointer; display: flex; height: 20px; justify-content: center; opacity: 0.3; position: relative; width: 20px; animation: auto ease 0s 1 normal none running none !important;&quot; class=&quot;markdown-section-toolbar-item dark&quot;&gt;&lt;span style=&quot;display: inline-block; font-variant-numeric: normal; font-variant-east-asian: normal; font-variant-alternates: normal; font-size-adjust: none; font-kerning: auto; font-optical-sizing: auto; font-feature-settings: normal; font-variation-settings: normal; font-variant-position: normal; font-variant-emoji: normal; font-stretch: normal; line-height: 1; font-family: codicon; text-rendering: auto; -webkit-font-smoothing: antialiased; user-select: none; animation: auto ease 0s 1 normal none running none !important;&quot; class=&quot;codicon codicon-reply&quot;&gt;&lt;/span&gt;&lt;/div&gt;&lt;div style=&quot;align-items: center; border-radius: 3px; cursor: pointer; display: flex; height: 20px; justify-content: center; opacity: 0.3; position: relative; width: 20px; pointer-events: auto; animation: auto ease 0s 1 normal none running none !important;&quot; class=&quot;markdown-section-toolbar-item markdown-section-toolbar-copy dark&quot;&gt;&lt;span style=&quot;display: inline-block; font-variant-numeric: normal; font-variant-east-asian: normal; font-variant-alternates: normal; font-size-adjust: none; font-kerning: auto; font-optical-sizing: auto; font-feature-settings: normal; font-variation-settings: normal; font-variant-position: normal; font-variant-emoji: normal; font-stretch: normal; line-height: 1; font-family: codicon; text-rendering: auto; -webkit-font-smoothing: antialiased; user-select: none; animation: auto ease 0s 1 normal none running none !important;&quot; class=&quot;codicon codicon-copy&quot;&gt;&lt;/span&gt;&lt;/div&gt;&lt;/div&gt;&lt;/div&gt;&lt;/div&gt;&lt;h4 style=&quot;margin-bottom: 0px; margin-top: 0px;&quot;&gt;&lt;font color=&quot;#ffffff&quot; style=&quot;font-weight: normal; background-color: rgb(10, 10, 10);&quot;&gt;Board #2&amp;nbsp;(Sensor Controller)&lt;/font&gt;&lt;/h4&gt;&lt;/section&gt;&lt;section style=&quot;border-radius: 4px; padding: 4px; position: relative; scroll-margin-bottom: 40px; scroll-margin-top: 40px; font-family: &amp;quot;Segoe WPC&amp;quot;, &amp;quot;Segoe UI&amp;quot;, sans-serif; line-height: 50%; margin: 2px 0px !important;&quot; data-section-index=&quot;22&quot; data-markdown-raw=&quot;- UART6_TX (PC6) → Connect to Board #1 UART6_RX&quot; class=&quot;markdown-section&quot; id=&quot;markdown-section-5cec0b7e-43b1-407c-96fc-deb87e958b63-22&quot;&gt;&lt;div style=&quot;animation: auto ease 0s 1 normal none running none !important;&quot; class=&quot;markdown-section-toolbar&quot;&gt;&lt;div style=&quot;animation: auto ease 0s 1 normal none running none !important; height: 0px; width: 531.219px;&quot;&gt;&lt;div style=&quot;border-radius: 4px; display: flex; gap: 4px; opacity: 0; position: absolute; right: 8px; top: 0px; transform: translateY(-85%); z-index: 303; animation: auto ease 0s 1 normal none running none !important;&quot; class=&quot;markdown-section-toolbar-internal&quot;&gt;&lt;div style=&quot;align-items: center; border-radius: 3px; cursor: pointer; display: flex; height: 20px; justify-content: center; opacity: 0.3; position: relative; width: 20px; animation: auto ease 0s 1 normal none running none !important;&quot; class=&quot;markdown-section-toolbar-item dark&quot;&gt;&lt;span style=&quot;display: inline-block; font-variant-numeric: normal; font-variant-east-asian: normal; font-variant-alternates: normal; font-size-adjust: none; font-kerning: auto; font-optical-sizing: auto; font-feature-settings: normal; font-variation-settings: normal; font-variant-position: normal; font-variant-emoji: normal; font-stretch: normal; line-height: 1; font-family: codicon; text-rendering: auto; -webkit-font-smoothing: antialiased; user-select: none; animation: auto ease 0s 1 normal none running none !important;&quot; class=&quot;codicon codicon-reply&quot;&gt;&lt;/span&gt;&lt;/div&gt;&lt;div style=&quot;align-items: center; border-radius: 3px; cursor: pointer; display: flex; height: 20px; justify-content: center; opacity: 0.3; position: relative; width: 20px; pointer-events: auto; animation: auto ease 0s 1 normal none running none !important;&quot; class=&quot;markdown-section-toolbar-item markdown-section-toolbar-copy dark&quot;&gt;&lt;span style=&quot;display: inline-block; font-variant-numeric: normal; font-variant-east-asian: normal; font-variant-alternates: normal; font-size-adjust: none; font-kerning: auto; font-optical-sizing: auto; font-feature-settings: normal; font-variation-settings: normal; font-variant-position: normal; font-variant-emoji: normal; font-stretch: normal; line-height: 1; font-family: codicon; text-rendering: auto; -webkit-font-smoothing: antialiased; user-select: none; animation: auto ease 0s 1 normal none running none !important;&quot; class=&quot;codicon codicon-copy&quot;&gt;&lt;/span&gt;&lt;/div&gt;&lt;/div&gt;&lt;/div&gt;&lt;/div&gt;&lt;li style=&quot;padding-left: 0px; padding-top: 2px; padding-bottom: 2px; margin-top: 0px; margin-bottom: 0px;&quot;&gt;&lt;font style=&quot;background-color: rgb(10, 10, 10);&quot; color=&quot;#ffffff&quot;&gt;UART6_TX (PC6) → Connect to Board #1 UART6_RX&lt;/font&gt;&lt;/li&gt;&lt;/section&gt;&lt;section style=&quot;border-radius: 4px; padding: 4px; position: relative; scroll-margin-bottom: 40px; scroll-margin-top: 40px; font-family: &amp;quot;Segoe WPC&amp;quot;, &amp;quot;Segoe UI&amp;quot;, sans-serif; line-height: 50%; margin: 2px 0px !important;&quot; data-section-index=&quot;23&quot; data-markdown-raw=&quot;- UART6_RX (PC7) → Connect to Board #1 UART6_TX&quot; class=&quot;markdown-section&quot; id=&quot;markdown-section-5cec0b7e-43b1-407c-96fc-deb87e958b63-23&quot;&gt;&lt;div style=&quot;animation: auto ease 0s 1 normal none running none !important;&quot; class=&quot;markdown-section-toolbar&quot;&gt;&lt;div style=&quot;animation: auto ease 0s 1 normal none running none !important; height: 0px; width: 531.219px;&quot;&gt;&lt;div style=&quot;border-radius: 4px; display: flex; gap: 4px; opacity: 0; position: absolute; right: 8px; top: 0px; transform: translateY(-85%); z-index: 303; animation: auto ease 0s 1 normal none running none !important;&quot; class=&quot;markdown-section-toolbar-internal&quot;&gt;&lt;div style=&quot;align-items: center; border-radius: 3px; cursor: pointer; display: flex; height: 20px; justify-content: center; opacity: 0.3; position: relative; width: 20px; animation: auto ease 0s 1 normal none running none !important;&quot; class=&quot;markdown-section-toolbar-item dark&quot;&gt;&lt;span style=&quot;display: inline-block; font-variant-numeric: normal; font-variant-east-asian: normal; font-variant-alternates: normal; font-size-adjust: none; font-kerning: auto; font-optical-sizing: auto; font-feature-settings: normal; font-variation-settings: normal; font-variant-position: normal; font-variant-emoji: normal; font-stretch: normal; line-height: 1; font-family: codicon; text-rendering: auto; -webkit-font-smoothing: antialiased; user-select: none; animation: auto ease 0s 1 normal none running none !important;&quot; class=&quot;codicon codicon-reply&quot;&gt;&lt;/span&gt;&lt;/div&gt;&lt;div style=&quot;align-items: center; border-radius: 3px; cursor: pointer; display: flex; height: 20px; justify-content: center; opacity: 0.3; position: relative; width: 20px; pointer-events: auto; animation: auto ease 0s 1 normal none running none !important;&quot; class=&quot;markdown-section-toolbar-item markdown-section-toolbar-copy dark&quot;&gt;&lt;span style=&quot;display: inline-block; font-variant-numeric: normal; font-variant-east-asian: normal; font-variant-alternates: normal; font-size-adjust: none; font-kerning: auto; font-optical-sizing: auto; font-feature-settings: normal; font-variation-settings: normal; font-variant-position: normal; font-variant-emoji: normal; font-stretch: normal; line-height: 1; font-family: codicon; text-rendering: auto; -webkit-font-smoothing: antialiased; user-select: none; animation: auto ease 0s 1 normal none running none !important;&quot; class=&quot;codicon codicon-copy&quot;&gt;&lt;/span&gt;&lt;/div&gt;&lt;/div&gt;&lt;/div&gt;&lt;/div&gt;&lt;li style=&quot;padding-left: 0px; padding-top: 2px; padding-bottom: 2px; margin-top: 0px; margin-bottom: 0px;&quot;&gt;&lt;font style=&quot;background-color: rgb(10, 10, 10);&quot; color=&quot;#ffffff&quot;&gt;UART6_RX (PC7) → Connect to Board #1 UART6_TX&lt;/font&gt;&lt;/li&gt;&lt;/section&gt;&lt;section style=&quot;border-radius: 4px; padding: 4px; position: relative; scroll-margin-bottom: 40px; scroll-margin-top: 40px; font-family: &amp;quot;Segoe WPC&amp;quot;, &amp;quot;Segoe UI&amp;quot;, sans-serif; line-height: 50%; margin: 2px 0px !important;&quot; data-section-index=&quot;24&quot; data-markdown-raw=&quot;- UART2_TX (PA2) → Connect to PC/Terminal RX&quot; class=&quot;markdown-section&quot; id=&quot;markdown-section-5cec0b7e-43b1-407c-96fc-deb87e958b63-24&quot;&gt;&lt;div style=&quot;animation: auto ease 0s 1 normal none running none !important;&quot; class=&quot;markdown-section-toolbar&quot;&gt;&lt;div style=&quot;animation: auto ease 0s 1 normal none running none !important; height: 0px; width: 531.219px;&quot;&gt;&lt;div style=&quot;border-radius: 4px; display: flex; gap: 4px; opacity: 1; position: absolute; right: 8px; top: 0px; transform: translateY(-85%); z-index: 303; animation: auto ease 0s 1 normal none running none !important;&quot; class=&quot;markdown-section-toolbar-internal&quot;&gt;&lt;div style=&quot;align-items: center; border-radius: 3px; cursor: pointer; display: flex; height: 20px; justify-content: center; opacity: 0.3; position: relative; width: 20px; animation: auto ease 0s 1 normal none running none !important;&quot; class=&quot;markdown-section-toolbar-item dark&quot;&gt;&lt;span style=&quot;display: inline-block; font-variant-numeric: normal; font-variant-east-asian: normal; font-variant-alternates: normal; font-size-adjust: none; font-kerning: auto; font-optical-sizing: auto; font-feature-settings: normal; font-variation-settings: normal; font-variant-position: normal; font-variant-emoji: normal; font-stretch: normal; line-height: 1; font-family: codicon; text-rendering: auto; -webkit-font-smoothing: antialiased; user-select: none; animation: auto ease 0s 1 normal none running none !important;&quot; class=&quot;codicon codicon-reply&quot;&gt;&lt;/span&gt;&lt;/div&gt;&lt;div style=&quot;align-items: center; border-radius: 3px; cursor: pointer; display: flex; height: 20px; justify-content: center; opacity: 0.3; position: relative; width: 20px; pointer-events: auto; animation: auto ease 0s 1 normal none running none !important;&quot; class=&quot;markdown-section-toolbar-item markdown-section-toolbar-copy dark&quot;&gt;&lt;span style=&quot;display: inline-block; font-variant-numeric: normal; font-variant-east-asian: normal; font-variant-alternates: normal; font-size-adjust: none; font-kerning: auto; font-optical-sizing: auto; font-feature-settings: normal; font-variation-settings: normal; font-variant-position: normal; font-variant-emoji: normal; font-stretch: normal; line-height: 1; font-family: codicon; text-rendering: auto; -webkit-font-smoothing: antialiased; user-select: none; animation: auto ease 0s 1 normal none running none !important;&quot; class=&quot;codicon codicon-copy&quot;&gt;&lt;/span&gt;&lt;/div&gt;&lt;/div&gt;&lt;/div&gt;&lt;/div&gt;&lt;li style=&quot;padding-left: 0px; padding-top: 2px; padding-bottom: 2px; margin-top: 0px; margin-bottom: 0px;&quot;&gt;&lt;font style=&quot;background-color: rgb(10, 10, 10);&quot; color=&quot;#ffffff&quot;&gt;UART2_TX (PA2) → Connect to PC/Terminal RX&lt;/font&gt;&lt;/li&gt;&lt;/section&gt;&lt;section style=&quot;border-radius: 4px; padding: 4px; position: relative; scroll-margin-bottom: 40px; scroll-margin-top: 40px; font-family: &amp;quot;Segoe WPC&amp;quot;, &amp;quot;Segoe UI&amp;quot;, sans-serif; line-height: 50%; margin: 2px 0px !important;&quot; data-section-index=&quot;25&quot; data-markdown-raw=&quot;- UART2_RX (PA3) → Connect to PC/Terminal TX&quot; class=&quot;markdown-section&quot; id=&quot;markdown-section-5cec0b7e-43b1-407c-96fc-deb87e958b63-25&quot;&gt;&lt;div style=&quot;animation: auto ease 0s 1 normal none running none !important;&quot; class=&quot;markdown-section-toolbar&quot;&gt;&lt;div style=&quot;animation: auto ease 0s 1 normal none running none !important; height: 0px; width: 531.219px;&quot;&gt;&lt;div style=&quot;border-radius: 4px; display: flex; gap: 4px; opacity: 0; position: absolute; right: 8px; top: 0px; transform: translateY(-85%); z-index: 303; animation: auto ease 0s 1 normal none running none !important;&quot; class=&quot;markdown-section-toolbar-internal&quot;&gt;&lt;div style=&quot;align-items: center; border-radius: 3px; cursor: pointer; display: flex; height: 20px; justify-content: center; opacity: 0.3; position: relative; width: 20px; animation: auto ease 0s 1 normal none running none !important;&quot; class=&quot;markdown-section-toolbar-item dark&quot;&gt;&lt;span style=&quot;display: inline-block; font-variant-numeric: normal; font-variant-east-asian: normal; font-variant-alternates: normal; font-size-adjust: none; font-kerning: auto; font-optical-sizing: auto; font-feature-settings: normal; font-variation-settings: normal; font-variant-position: normal; font-variant-emoji: normal; font-stretch: normal; line-height: 1; font-family: codicon; text-rendering: auto; -webkit-font-smoothing: antialiased; user-select: none; animation: auto ease 0s 1 normal none running none !important;&quot; class=&quot;codicon codicon-reply&quot;&gt;&lt;/span&gt;&lt;/div&gt;&lt;div style=&quot;align-items: center; border-radius: 3px; cursor: pointer; display: flex; height: 20px; justify-content: center; opacity: 0.3; position: relative; width: 20px; pointer-events: auto; animation: auto ease 0s 1 normal none running none !important;&quot; class=&quot;markdown-section-toolbar-item markdown-section-toolbar-copy dark&quot;&gt;&lt;span style=&quot;display: inline-block; font-variant-numeric: normal; font-variant-east-asian: normal; font-variant-alternates: normal; font-size-adjust: none; font-kerning: auto; font-optical-sizing: auto; font-feature-settings: normal; font-variation-settings: normal; font-variant-position: normal; font-variant-emoji: normal; font-stretch: normal; line-height: 1; font-family: codicon; text-rendering: auto; -webkit-font-smoothing: antialiased; user-select: none; animation: auto ease 0s 1 normal none running none !important;&quot; class=&quot;codicon codicon-copy&quot;&gt;&lt;/span&gt;&lt;/div&gt;&lt;/div&gt;&lt;/div&gt;&lt;/div&gt;&lt;li style=&quot;padding-left: 0px; padding-top: 2px; padding-bottom: 2px; margin-top: 0px; margin-bottom: 0px;&quot;&gt;&lt;font style=&quot;background-color: rgb(10, 10, 10);&quot; color=&quot;#ffffff&quot;&gt;UART2_RX&amp;nbsp;(PA3) → Connect to PC/Terminal TX&lt;/font&gt;&lt;/li&gt;&lt;/section&gt;&lt;section style=&quot;border-radius: 4px; padding: 4px; position: relative; scroll-margin-bottom: 40px; scroll-margin-top: 40px; font-family: &amp;quot;Segoe WPC&amp;quot;, &amp;quot;Segoe UI&amp;quot;, sans-serif; line-height: 50%; margin: 2px 0px !important;&quot; data-section-index=&quot;26&quot; data-markdown-raw=&quot;- GND → Connect to Board #1 GND and PC GND&quot; class=&quot;markdown-section&quot; id=&quot;markdown-section-5cec0b7e-43b1-407c-96fc-deb87e958b63-26&quot;&gt;&lt;div style=&quot;animation: auto ease 0s 1 normal none running none !important;&quot; class=&quot;markdown-section-toolbar&quot;&gt;&lt;div style=&quot;animation: auto ease 0s 1 normal none running none !important; height: 0px; width: 531.219px;&quot;&gt;&lt;div style=&quot;border-radius: 4px; display: flex; gap: 4px; opacity: 0; position: absolute; right: 8px; top: 0px; transform: translateY(-85%); z-index: 303; animation: auto ease 0s 1 normal none running none !important;&quot; class=&quot;markdown-section-toolbar-internal&quot;&gt;&lt;div style=&quot;align-items: center; border-radius: 3px; cursor: pointer; display: flex; height: 20px; justify-content: center; opacity: 0.3; position: relative; width: 20px; animation: auto ease 0s 1 normal none running none !important;&quot; class=&quot;markdown-section-toolbar-item dark&quot;&gt;&lt;span style=&quot;display: inline-block; font-variant-numeric: normal; font-variant-east-asian: normal; font-variant-alternates: normal; font-size-adjust: none; font-kerning: auto; font-optical-sizing: auto; font-feature-settings: normal; font-variation-settings: normal; font-variant-position: normal; font-variant-emoji: normal; font-stretch: normal; line-height: 1; font-family: codicon; text-rendering: auto; -webkit-font-smoothing: antialiased; user-select: none; animation: auto ease 0s 1 normal none running none !important;&quot; class=&quot;codicon codicon-reply&quot;&gt;&lt;/span&gt;&lt;/div&gt;&lt;div style=&quot;align-items: center; border-radius: 3px; cursor: pointer; display: flex; height: 20px; justify-content: center; opacity: 0.3; position: relative; width: 20px; pointer-events: auto; animation: auto ease 0s 1 normal none running none !important;&quot; class=&quot;markdown-section-toolbar-item markdown-section-toolbar-copy dark&quot;&gt;&lt;span style=&quot;display: inline-block; font-variant-numeric: normal; font-variant-east-asian: normal; font-variant-alternates: normal; font-size-adjust: none; font-kerning: auto; font-optical-sizing: auto; font-feature-settings: normal; font-variation-settings: normal; font-variant-position: normal; font-variant-emoji: normal; font-stretch: normal; line-height: 1; font-family: codicon; text-rendering: auto; -webkit-font-smoothing: antialiased; user-select: none; animation: auto ease 0s 1 normal none running none !important;&quot; class=&quot;codicon codicon-copy&quot;&gt;&lt;/span&gt;&lt;/div&gt;&lt;/div&gt;&lt;/div&gt;&lt;/div&gt;&lt;li style=&quot;padding-left: 0px; padding-top: 2px; padding-bottom: 2px; margin-top: 0px; margin-bottom: 0px;&quot;&gt;&lt;font color=&quot;#ffffff&quot; style=&quot;background-color: rgb(10, 10, 10);&quot;&gt;GND → Connect to Board #1 GND and PC GND&lt;/font&gt;&lt;/li&gt;&lt;/section&gt;" style="rounded=0;whiteSpace=wrap;html=1;align=left;" vertex="1" parent="1">
          <mxGeometry x="520" y="30" width="310" height="260" as="geometry" />
        </mxCell>
        <mxCell id="MydypRXtHJw0Ag65gW76-3" value="NUCLEO-F411RE&lt;div&gt;Sensor Platform&lt;/div&gt;" style="whiteSpace=wrap;html=1;" vertex="1" parent="1">
          <mxGeometry x="290" y="20" width="180" height="290" as="geometry" />
        </mxCell>
        <mxCell id="MydypRXtHJw0Ag65gW76-5" value="" style="shape=image;verticalLabelPosition=bottom;labelBackgroundColor=default;verticalAlign=top;aspect=fixed;imageAspect=0;image=https://www.oreilly.com/api/v2/epubs/9780081029701/files/images/B978008102969509995X/u00-01-9780081029695.jpg;clipPath=inset(4.55% 0% 0% 33.33%);" vertex="1" parent="1">
          <mxGeometry x="20" y="510" width="282.94505494505495" height="386.22" as="geometry" />
        </mxCell>
        <mxCell id="MydypRXtHJw0Ag65gW76-9" value="" style="shape=image;verticalLabelPosition=bottom;labelBackgroundColor=default;verticalAlign=top;aspect=fixed;imageAspect=0;image=https://www.oreilly.com/api/v2/epubs/9780081029701/files/images/B978008102969509995X/u00-01-9780081029695.jpg;clipPath=inset(4.55% 0% 0% 33.33%);" vertex="1" parent="1">
          <mxGeometry x="430" y="510" width="282.94505494505495" height="386.22" as="geometry" />
        </mxCell>
        <mxCell id="MydypRXtHJw0Ag65gW76-11" value="" style="curved=1;endArrow=classic;html=1;rounded=0;strokeWidth=6;fillColor=#ffe6cc;strokeColor=#d79b00;" edge="1" parent="1">
          <mxGeometry width="50" height="50" relative="1" as="geometry">
            <mxPoint x="250" y="620" as="sourcePoint" />
            <mxPoint x="640" y="703" as="targetPoint" />
            <Array as="points">
              <mxPoint x="330" y="620" />
              <mxPoint x="350" y="630" />
              <mxPoint x="450" y="670" />
              <mxPoint x="490" y="680" />
            </Array>
          </mxGeometry>
        </mxCell>
        <mxCell id="MydypRXtHJw0Ag65gW76-12" value="" style="curved=1;endArrow=classic;html=1;rounded=0;strokeWidth=6;fillColor=#ffe6cc;strokeColor=#d79b00;" edge="1" parent="1">
          <mxGeometry width="50" height="50" relative="1" as="geometry">
            <mxPoint x="230" y="720" as="sourcePoint" />
            <mxPoint x="660" y="620" as="targetPoint" />
            <Array as="points">
              <mxPoint x="310" y="720" />
              <mxPoint x="330" y="730" />
              <mxPoint x="430" y="770" />
              <mxPoint x="470" y="780" />
              <mxPoint x="680" y="800" />
            </Array>
          </mxGeometry>
        </mxCell>
      </root>
    </mxGraphModel>
  </diagram>
</mxfile>
